Coordinates
version=1
nRows=24
nColumns=38
inDegrees=no

Units are S.I. units (second, meters, Newtons, ...)
If the header above contains a line with 'inDegrees', this indicates whether rotational values are in degrees (yes) or radians (no).

endheader
time	pelvis_tilt	pelvis_list	pelvis_rotation	pelvis_tx	pelvis_ty	pelvis_tz	hip_flexion_r	hip_adduction_r	hip_rotation_r	knee_angle_r	ankle_angle_r	subtalar_angle_r	mtp_angle_r	hip_flexion_l	hip_adduction_l	hip_rotation_l	knee_angle_l	ankle_angle_l	subtalar_angle_l	mtp_angle_l	lumbar_extension	lumbar_bending	lumbar_rotation	arm_flex_r	arm_add_r	arm_rot_r	elbow_flex_r	pro_sup_r	wrist_flex_r	wrist_dev_r	arm_flex_l	arm_add_l	arm_rot_l	elbow_flex_l	pro_sup_l	wrist_flex_l	wrist_dev_l
1.68	-3.11036	1.41096	-1.62619	0.780887	0.81804	1.00558	-0.326965	-0.0405689	-0.289912	0.326618	0.234895	0	0	0.253066	-0.0226326	-0.353307	0.284387	0.0462152	0	0	-0.400333	-0.00689306	0.0363004	0.00900032	-0.215751	0.149302	0.378272	1.33937	0	0	0.0748923	-0.252228	0.38242	0.364078	1.2678	0	0
1.69	-3.10288	1.40828	-1.63909	0.780051	0.829588	1.00468	-0.329488	-0.0493666	-0.286914	0.349696	0.234526	0	0	0.245835	-0.0195991	-0.353902	0.295055	0.0457975	0	0	-0.396019	-0.00997118	0.0425109	-0.00137939	-0.216733	0.146846	0.381578	1.33816	0	0	0.0714501	-0.249237	0.381808	0.357203	1.27263	0	0
1.7	-3.09939	1.40739	-1.64819	0.779159	0.84145	1.00357	-0.328271	-0.0580229	-0.282458	0.376521	0.23331	0	0	0.23871	-0.0164065	-0.350078	0.304652	0.0417444	0	0	-0.388782	-0.0122573	0.0492967	-0.0131937	-0.217651	0.143451	0.384964	1.33722	0	0	0.0669296	-0.246176	0.381511	0.350523	1.27805	0	0
1.71	-3.09758	1.40855	-1.65634	0.778204	0.853543	1.00219	-0.322205	-0.067363	-0.276114	0.40838	0.231189	0	0	0.232341	-0.012894	-0.344844	0.311948	0.032898	0	0	-0.378486	-0.0141802	0.0568241	-0.0262936	-0.218656	0.139078	0.388785	1.33678	0	0	0.0611112	-0.24262	0.379795	0.344293	1.28401	0	0
1.72	3.12771	1.41606	-1.60778	0.777079	0.866702	0.99948	-0.307764	-0.0680926	-0.263594	0.445019	0.228095	0	0	0.233108	-0.0192449	-0.333426	0.321839	0.0235087	0	0	-0.357419	-0.00521892	0.0698243	-0.0470625	-0.224343	0.135469	0.399663	1.33599	0	0	0.0501465	-0.23575	0.375158	0.336929	1.2945	0	0
1.73	3.13996	1.41933	-1.62691	0.776009	0.878526	0.99816	-0.292669	-0.07977	-0.251204	0.486912	0.219408	0	0	0.230361	-0.0155061	-0.331691	0.32771	0.00162777	0	0	-0.345602	-0.00900352	0.0754868	-0.0582075	-0.224862	0.13142	0.402662	1.33497	0	0	0.0430297	-0.232754	0.368151	0.332054	1.30277	0	0
1.74	-3.11279	1.42141	-1.66337	0.77505	0.889836	0.997516	-0.274882	-0.0932859	-0.235921	0.532731	0.203599	0	0	0.230517	-0.011804	-0.330937	0.341698	-0.00949498	0	0	-0.337004	-0.0162498	0.0788346	-0.0657449	-0.222634	0.122153	0.403331	1.33718	0	0	0.0375471	-0.230876	0.358271	0.327503	1.3122	0	0
1.75	-3.06138	1.42132	-1.71945	0.774196	0.900692	0.997669	-0.254625	-0.109582	-0.220843	0.583352	0.179592	0	0	0.231733	-0.00605019	-0.327586	0.362532	-0.00763815	0	0	-0.332389	-0.0272118	0.079993	-0.0708082	-0.217781	0.106706	0.403495	1.34455	0	0	0.034406	-0.229956	0.345793	0.323134	1.32211	0	0
1.76	-2.99398	1.41901	-1.78902	0.773274	0.911201	0.998388	-0.232022	-0.128495	-0.208765	0.638334	0.147305	0	0	0.232008	0.00298636	-0.322718	0.384867	-0.00266773	0	0	-0.330656	-0.040678	0.0789879	-0.0746205	-0.211171	0.0854479	0.403707	1.3579	0	0	0.0337959	-0.229668	0.33286	0.318489	1.33219	0	0
1.77	-2.92412	1.41693	-1.85881	0.772201	0.921433	0.999121	-0.20495	-0.147374	-0.197652	0.696693	0.10805	0	0	0.232171	0.0134827	-0.31805	0.404268	-0.000149856	0	0	-0.32833	-0.0540155	0.0768683	-0.0780735	-0.20457	0.0627637	0.403787	1.37446	0	0	0.0349236	-0.229799	0.323651	0.313054	1.34265	0	0
1.78	-2.85745	1.41726	-1.92445	0.77109	0.93138	0.999466	-0.171401	-0.164333	-0.185141	0.758034	0.0641731	0	0	0.232838	0.0235207	-0.315632	0.418518	0.00206311	0	0	-0.323114	-0.0658018	0.0751167	-0.081232	-0.199198	0.0441565	0.403186	1.39084	0	0	0.0366445	-0.230393	0.319732	0.307254	1.35623	0	0
1.79	-2.79307	1.42098	-1.98871	0.770048	0.941138	0.999214	-0.130873	-0.178367	-0.168903	0.821856	0.0191223	0	0	0.235101	0.0314931	-0.317237	0.429563	0.00931182	0	0	-0.313705	-0.0755524	0.07536	-0.0845918	-0.195698	0.0318034	0.402248	1.40414	0	0	0.0380351	-0.231147	0.316376	0.301939	1.36895	0	0
1.8	-2.72345	1.42768	-2.06077	0.769202	0.950626	0.998396	-0.0832645	-0.189581	-0.147722	0.887837	-0.0267581	0	0	0.238952	0.0375619	-0.324204	0.437375	0.0216357	0	0	-0.300351	-0.0842459	0.0788852	-0.0884464	-0.194038	0.026063	0.402165	1.41171	0	0	0.038533	-0.232424	0.314257	0.299408	1.37846	0	0
1.81	-2.59237	1.4275	-2.19449	0.76848	0.959105	0.998165	-0.0332791	-0.211044	-0.126861	0.954322	-0.0744239	0	0	0.238972	0.0530563	-0.343853	0.436074	0.026595	0	0	-0.29108	-0.104267	0.0799016	-0.0869849	-0.189467	0.0214568	0.397922	1.41616	0	0	0.0409461	-0.237154	0.314465	0.300941	1.38599	0	0
1.82	-2.51179	1.43317	-2.28133	0.767839	0.96814	0.997035	0.0186262	-0.219102	-0.102189	1.01707	-0.121574	0	0	0.241492	0.0589112	-0.353851	0.437455	0.0388567	0	0	-0.276273	-0.112355	0.0876027	-0.091466	-0.189431	0.0214458	0.400653	1.41668	0	0	0.0391449	-0.239846	0.317156	0.305677	1.38879	0	0
1.83	-2.43355	1.43587	-2.36533	0.767192	0.976878	0.996285	0.0671036	-0.226429	-0.0793114	1.07493	-0.168695	0	0	0.2412	0.065739	-0.363038	0.436889	0.0489403	0	0	-0.264379	-0.120732	0.0945118	-0.094984	-0.189475	0.0233575	0.4041	1.41542	0	0	0.0375733	-0.243153	0.320415	0.31248	1.38894	0	0
1.84	-2.36265	1.43596	-2.44209	0.766311	0.985236	0.996219	0.122431	-0.24504	-0.0716516	1.14112	-0.230962	0	0	0.238992	0.0737306	-0.370701	0.435558	0.0560346	0	0	-0.255791	-0.128849	0.101121	-0.0975798	-0.190607	0.0276813	0.409419	1.41118	0	0	0.0367603	-0.24588	0.324454	0.321016	1.38507	0	0
1.85	-2.31223	1.43313	-2.49335	0.765607	0.993694	0.996498	0.14942	-0.242018	-0.0458084	1.17313	-0.269105	0	0	0.233341	0.0821663	-0.373056	0.435532	0.0629336	0	0	-0.251186	-0.137047	0.102561	-0.0993219	-0.189444	0.0298896	0.41373	1.40806	0	0	0.0362904	-0.249922	0.327158	0.329019	1.38198	0	0
1.86	-2.301	1.42996	-2.50345	0.76456	1.00205	0.99762	0.178541	-0.247269	-0.0382757	1.21185	-0.314276	0	0	0.221858	0.0888289	-0.371393	0.432623	0.0680139	0	0	-0.252025	-0.140824	0.102372	-0.100332	-0.18988	0.0330304	0.419126	1.40289	0	0	0.036764	-0.252308	0.332632	0.336613	1.37815	0	0
1.87	-2.3192	1.42805	-2.4809	0.763308	1.01036	0.999172	0.20136	-0.248163	-0.0347859	1.24621	-0.341333	0	0	0.206355	0.0931847	-0.364585	0.427227	0.0727679	0	0	-0.256028	-0.139892	0.09975	-0.100619	-0.191386	0.0381486	0.423918	1.39345	0	0	0.0391107	-0.252926	0.339225	0.340046	1.37389	0	0
1.88	-2.35805	1.42776	-2.43607	0.762005	1.01856	1.00096	0.220694	-0.245887	-0.03477	1.2775	-0.34762	0	0	0.188053	0.0948578	-0.354734	0.419229	0.077007	0	0	-0.261687	-0.135044	0.0960741	-0.0992616	-0.192791	0.0407538	0.425919	1.38554	0	0	0.0435466	-0.250725	0.339376	0.338442	1.3739	0	0
1.89	-2.40805	1.42826	-2.37954	0.76076	1.02667	1.00282	0.238114	-0.241859	-0.0370502	1.30471	-0.33951	0	0	0.168009	0.0945774	-0.343566	0.409397	0.0817246	0	0	-0.267888	-0.128103	0.0921673	-0.0962876	-0.19369	0.0413678	0.424945	1.37948	0	0	0.0492417	-0.246939	0.334031	0.333788	1.37952	0	0
1.9	-2.45649	1.42835	-2.32438	0.759613	1.03471	1.00464	0.254838	-0.239223	-0.0417833	1.32753	-0.324893	0	0	0.147606	0.0942214	-0.334048	0.397953	0.0867115	0	0	-0.273819	-0.121628	0.0880078	-0.09165	-0.193985	0.0424102	0.420903	1.37482	0	0	0.0556509	-0.24269	0.32362	0.327264	1.39264	0	0
1.91	-2.50695	1.42904	-2.26886	0.757789	1.04272	1.00618	0.273343	-0.249051	-0.0459425	1.3434	-0.303843	0	0	0.130281	0.0986352	-0.318717	0.389203	0.0866244	0	0	-0.278765	-0.113515	0.0842309	-0.0853402	-0.195699	0.0466466	0.414343	1.3699	0	0	0.0611642	-0.237679	0.312617	0.321242	1.40733	0	0
